<mxfile host="app.diagrams.net" agent="Mozilla/5.0 (Windows NT 10.0; Win64; x64) AppleWebKit/537.36 (KHTML, like Gecko) Chrome/130.0.0.0 Safari/537.36" version="24.8.0">
  <diagram name="Page-1" id="sGjQ7m2G3MN2MaqTW69j">
    <mxGraphModel dx="1877" dy="1692" grid="1" gridSize="10" guides="1" tooltips="1" connect="1" arrows="1" fold="1" page="1" pageScale="1" pageWidth="827" pageHeight="1169" math="0" shadow="0">
      <root>
        <mxCell id="0" />
        <mxCell id="1" parent="0" />
        <mxCell id="QhEOJmIxH4zM1tV8FhGk-2" value="System/Admin" style="shape=umlActor;verticalLabelPosition=bottom;verticalAlign=top;html=1;" parent="1" vertex="1">
          <mxGeometry x="740" y="170" width="30" height="60" as="geometry" />
        </mxCell>
        <UserObject label="Search for Theatre" tooltip="Registration" id="QhEOJmIxH4zM1tV8FhGk-8">
          <mxCell style="ellipse;whiteSpace=wrap;html=1;" parent="1" vertex="1">
            <mxGeometry x="180" y="70" width="120" height="80" as="geometry" />
          </mxCell>
        </UserObject>
        <mxCell id="RNPqV13Z0pUv3PcIaKID-15" style="edgeStyle=orthogonalEdgeStyle;rounded=0;orthogonalLoop=1;jettySize=auto;html=1;exitX=1;exitY=1;exitDx=0;exitDy=0;exitPerimeter=0;entryX=0;entryY=0.5;entryDx=0;entryDy=0;" edge="1" parent="1" source="cjHX63HQ0iyKOUZ8dX6u-1" target="RNPqV13Z0pUv3PcIaKID-11">
          <mxGeometry relative="1" as="geometry" />
        </mxCell>
        <mxCell id="cjHX63HQ0iyKOUZ8dX6u-1" value="User" style="shape=umlActor;verticalLabelPosition=bottom;verticalAlign=top;html=1;" parent="1" vertex="1">
          <mxGeometry x="-120" y="180" width="30" height="60" as="geometry" />
        </mxCell>
        <mxCell id="cjHX63HQ0iyKOUZ8dX6u-7" value="Pay for tickets" style="ellipse;whiteSpace=wrap;html=1;" parent="1" vertex="1">
          <mxGeometry x="160" y="290" width="120" height="70" as="geometry" />
        </mxCell>
        <mxCell id="cjHX63HQ0iyKOUZ8dX6u-8" value="Select Seats" style="ellipse;whiteSpace=wrap;html=1;" parent="1" vertex="1">
          <mxGeometry x="160" y="160" width="120" height="80" as="geometry" />
        </mxCell>
        <mxCell id="cjHX63HQ0iyKOUZ8dX6u-19" value="" style="endArrow=none;html=1;rounded=0;" parent="1" target="QhEOJmIxH4zM1tV8FhGk-8" edge="1">
          <mxGeometry width="50" height="50" relative="1" as="geometry">
            <mxPoint x="-100" y="220" as="sourcePoint" />
            <mxPoint x="-50" y="170" as="targetPoint" />
          </mxGeometry>
        </mxCell>
        <mxCell id="cjHX63HQ0iyKOUZ8dX6u-26" value="&lt;b&gt;Movie Ticket Booking Use Case&lt;/b&gt;" style="text;html=1;align=center;verticalAlign=middle;whiteSpace=wrap;rounded=0;" parent="1" vertex="1">
          <mxGeometry x="-130" y="-110" width="290" height="80" as="geometry" />
        </mxCell>
        <mxCell id="RNPqV13Z0pUv3PcIaKID-2" value="" style="endArrow=none;html=1;rounded=0;entryX=0;entryY=0.5;entryDx=0;entryDy=0;" edge="1" parent="1" source="cjHX63HQ0iyKOUZ8dX6u-1" target="RNPqV13Z0pUv3PcIaKID-9">
          <mxGeometry width="50" height="50" relative="1" as="geometry">
            <mxPoint x="-101" y="127" as="sourcePoint" />
            <mxPoint x="160" as="targetPoint" />
          </mxGeometry>
        </mxCell>
        <mxCell id="RNPqV13Z0pUv3PcIaKID-3" value="" style="endArrow=none;html=1;rounded=0;entryX=0;entryY=0.5;entryDx=0;entryDy=0;" edge="1" parent="1" target="cjHX63HQ0iyKOUZ8dX6u-8">
          <mxGeometry width="50" height="50" relative="1" as="geometry">
            <mxPoint x="-90" y="230" as="sourcePoint" />
            <mxPoint x="171" y="103" as="targetPoint" />
          </mxGeometry>
        </mxCell>
        <mxCell id="RNPqV13Z0pUv3PcIaKID-4" value="" style="endArrow=none;html=1;rounded=0;exitX=0.847;exitY=0.883;exitDx=0;exitDy=0;exitPerimeter=0;" edge="1" parent="1" source="cjHX63HQ0iyKOUZ8dX6u-1">
          <mxGeometry width="50" height="50" relative="1" as="geometry">
            <mxPoint x="-100" y="447" as="sourcePoint" />
            <mxPoint x="161" y="320" as="targetPoint" />
          </mxGeometry>
        </mxCell>
        <UserObject label="Search for Movie" tooltip="Registration" id="RNPqV13Z0pUv3PcIaKID-9">
          <mxCell style="ellipse;whiteSpace=wrap;html=1;" vertex="1" parent="1">
            <mxGeometry x="240" width="120" height="80" as="geometry" />
          </mxCell>
        </UserObject>
        <UserObject label="Login" tooltip="Registration" id="RNPqV13Z0pUv3PcIaKID-10">
          <mxCell style="ellipse;whiteSpace=wrap;html=1;" vertex="1" parent="1">
            <mxGeometry x="240" y="-120" width="120" height="80" as="geometry" />
          </mxCell>
        </UserObject>
        <mxCell id="RNPqV13Z0pUv3PcIaKID-11" value="Cancel Ticket" style="ellipse;whiteSpace=wrap;html=1;" vertex="1" parent="1">
          <mxGeometry x="160" y="390" width="120" height="70" as="geometry" />
        </mxCell>
        <mxCell id="RNPqV13Z0pUv3PcIaKID-14" value="" style="endArrow=none;html=1;rounded=0;" edge="1" parent="1" target="RNPqV13Z0pUv3PcIaKID-10">
          <mxGeometry width="50" height="50" relative="1" as="geometry">
            <mxPoint x="-100" y="200" as="sourcePoint" />
            <mxPoint x="-60" y="160" as="targetPoint" />
            <Array as="points">
              <mxPoint x="240" y="-10" />
            </Array>
          </mxGeometry>
        </mxCell>
        <UserObject label="Add/delete movie" tooltip="Registration" id="RNPqV13Z0pUv3PcIaKID-16">
          <mxCell style="ellipse;whiteSpace=wrap;html=1;" vertex="1" parent="1">
            <mxGeometry x="360" y="50" width="120" height="80" as="geometry" />
          </mxCell>
        </UserObject>
        <UserObject label="Add/delete Theatre" tooltip="Registration" id="RNPqV13Z0pUv3PcIaKID-17">
          <mxCell style="ellipse;whiteSpace=wrap;html=1;" vertex="1" parent="1">
            <mxGeometry x="370" y="160" width="120" height="80" as="geometry" />
          </mxCell>
        </UserObject>
        <UserObject label="Issue Ticket" tooltip="Registration" id="RNPqV13Z0pUv3PcIaKID-18">
          <mxCell style="ellipse;whiteSpace=wrap;html=1;" vertex="1" parent="1">
            <mxGeometry x="380" y="290" width="120" height="80" as="geometry" />
          </mxCell>
        </UserObject>
        <mxCell id="RNPqV13Z0pUv3PcIaKID-19" value="" style="endArrow=none;html=1;rounded=0;exitX=1.018;exitY=0.425;exitDx=0;exitDy=0;exitPerimeter=0;" edge="1" parent="1" source="RNPqV13Z0pUv3PcIaKID-16">
          <mxGeometry width="50" height="50" relative="1" as="geometry">
            <mxPoint x="710" y="240" as="sourcePoint" />
            <mxPoint x="760" y="190" as="targetPoint" />
          </mxGeometry>
        </mxCell>
        <mxCell id="RNPqV13Z0pUv3PcIaKID-20" value="" style="endArrow=none;html=1;rounded=0;exitX=1.002;exitY=0.6;exitDx=0;exitDy=0;exitPerimeter=0;" edge="1" parent="1" source="RNPqV13Z0pUv3PcIaKID-17" target="QhEOJmIxH4zM1tV8FhGk-2">
          <mxGeometry width="50" height="50" relative="1" as="geometry">
            <mxPoint x="490" y="110" as="sourcePoint" />
            <mxPoint x="768" y="216" as="targetPoint" />
          </mxGeometry>
        </mxCell>
        <mxCell id="RNPqV13Z0pUv3PcIaKID-21" value="" style="endArrow=none;html=1;rounded=0;exitX=1.002;exitY=0.6;exitDx=0;exitDy=0;exitPerimeter=0;entryX=0.153;entryY=0.86;entryDx=0;entryDy=0;entryPerimeter=0;" edge="1" parent="1" target="QhEOJmIxH4zM1tV8FhGk-2">
          <mxGeometry width="50" height="50" relative="1" as="geometry">
            <mxPoint x="500" y="318" as="sourcePoint" />
            <mxPoint x="750" y="310" as="targetPoint" />
          </mxGeometry>
        </mxCell>
        <mxCell id="RNPqV13Z0pUv3PcIaKID-23" value="" style="endArrow=none;html=1;rounded=0;entryX=0.25;entryY=0.1;entryDx=0;entryDy=0;entryPerimeter=0;" edge="1" parent="1" source="RNPqV13Z0pUv3PcIaKID-10" target="QhEOJmIxH4zM1tV8FhGk-2">
          <mxGeometry width="50" height="50" relative="1" as="geometry">
            <mxPoint x="180" y="-30" as="sourcePoint" />
            <mxPoint x="230" y="-80" as="targetPoint" />
            <Array as="points">
              <mxPoint x="360" y="-70" />
            </Array>
          </mxGeometry>
        </mxCell>
      </root>
    </mxGraphModel>
  </diagram>
</mxfile>
